<svg version="1.0" xmlns="http://www.w3.org/2000/svg" width="1000.000000pt" fill="#333853" height="1000.000000pt" viewBox="0 0 1000.000000 1000.000000" preserveAspectRatio="xMidYMid meet">
    <rect width="100%" height="100%" fill="#333853"/>
    <g transform="translate(0.000000,1000.000000) scale(0.100000,-0.100000)" fill="#333853">
        <path fill="#dae9ff" d="M0 5000 l0 -5000 5000 0 5000 0 0 5000 0 5000 -5000 0 -5000 0 0
            -5000z m7694 2520 c220 -56 389 -218 458 -440 l23 -75 0 -2010 0 -2010 -29
            -89 c-71 -216 -235 -371 -452 -426 -76 -20 -122 -20 -2699 -20 -2577 0 -2623
            0 -2699 20 -220 56 -389 218 -458 440 l-23 75 0 2010 0 2010 29 89 c70 214
            234 370 448 426 71 18 148 19 2699 19 2582 1 2627 1 2703 -19z"/>
        <path fill="#dae9ff" d="M2450 4995 l0 -1905 1115 0 1115 0 0 1905 0 1905 -1115 0 -1115 0 0
            -1905z m1558 1133 c19 -19 17 -2381 -2 -2397 -9 -8 -81 -11 -237 -9 l-224 3
            -3 910 c-1 508 -6 913 -11 918 -5 5 -119 -26 -270 -73 -144 -45 -269 -80 -279
            -78 -15 3 -17 23 -20 185 -2 171 -1 183 17 195 28 17 972 356 997 357 11 1 25
            -4 32 -11z"/>
        <path fill="#dae9ff" d="M5310 4995 l0 -1905 410 0 410 0 0 134 0 134 168 4 c166 3 168 3 234
            36 86 42 161 123 183 194 34 115 11 259 -52 329 -57 63 -103 82 -209 87 -132
            6 -227 -24 -299 -95 -35 -35 -64 -98 -65 -140 l0 -33 -245 0 c-165 0 -245 3
            -245 11 0 43 39 170 77 249 86 179 243 303 458 362 70 19 106 22 290 23 189 0
            218 -2 294 -23 201 -55 347 -164 421 -316 93 -187 92 -391 -2 -584 -41 -85
            -141 -188 -222 -229 l-59 -30 81 -56 80 -57 261 0 261 0 0 1905 0 1905 -196 0
            c-183 0 -196 -1 -189 -17 31 -71 48 -166 48 -278 1 -106 -2 -129 -26 -198 -31
            -89 -99 -228 -154 -315 -21 -32 -204 -241 -407 -463 l-369 -404 526 -3 527 -2
            0 -190 0 -190 -825 0 c-652 0 -826 3 -830 13 -2 6 -6 80 -9 162 l-6 150 146
            155 c217 230 659 710 764 830 108 124 124 152 156 278 62 243 5 412 -152 458
            -74 21 -199 15 -265 -14 -122 -53 -198 -182 -199 -334 l0 -48 -246 0 -247 0 7
            61 c9 79 48 213 85 289 l28 60 -198 0 -199 0 0 -1905z"/>
    </g>
</svg>